<?xml version="1.0" encoding="UTF-8"?>
<!DOCTYPE svg PUBLIC "-//W3C//DTD SVG 1.1//EN" "http://www.w3.org/Graphics/SVG/1.1/DTD/svg11.dtd">
<!-- Creator: CorelDRAW 2017 -->
<?xml-stylesheet href="dfruitlogostripes.css" type="text/css"?>
<svg xmlns="http://www.w3.org/2000/svg" xml:space="preserve" width="100%" height="100%" version="1.1" style="shape-rendering:geometricPrecision; text-rendering:geometricPrecision; image-rendering:optimizeQuality; fill-rule:evenodd; clip-rule:evenodd"
viewBox="0 0 84667 84667"
 xmlns:xlink="http://www.w3.org/1999/xlink">
 <g id="Layer_x0020_1">
  <metadata id="CorelCorpID_0Corel-Layer"/>
  <g id="_2421205767808">
   <g>
    <path class="fil0" d="M21970 63514c194,1906 1507,5709 2184,7324 1085,2591 3825,7039 6014,8785 444,355 795,686 1236,1061 415,353 876,661 1332,966 2249,1505 5395,2831 8567,2831 4047,0 6637,-814 9891,-2977 984,-654 1262,-952 2037,-1641l1148 -1058c716,-707 2128,-2521 2662,-3313 2455,-3643 3877,-7639 4655,-11980l-1936 -1c-341,1208 -638,2311 -841,3013 -259,898 -635,2650 -1255,3065 -353,-237 -448,-654 -673,-1073 -523,-974 -1524,-2453 -2139,-3376 -283,-425 -677,-989 -1136,-1628l-8732 -2c0,5 0,11 0,16 -6,474 -74,506 -96,915 -16,298 12,623 3,923 -20,681 -176,1794 -184,2849 -4,477 -75,505 -95,916 -37,742 -24,2235 -275,2758 -379,-31 -614,-289 -881,-498l-2217 -1919c-546,-457 -2109,-2312 -2669,-2938 -240,-267 -374,-494 -604,-775l-1590 -2248 -14406 3z"/>
    <path class="fil0" d="M54219 63512c1429,2015 3181,4600 3354,5344l184 0c182,-781 522,-1602 768,-2449 227,-785 491,-1802 788,-2895l-5095 1z"/>
    <path class="fil0" d="M36847 63510c989,1493 2039,2722 3288,4216 523,626 2282,2288 2967,2824 288,225 614,604 958,696l379 -7735 -7592 -1z"/>
   </g>
   <g>
    <path class="fil1" d="M61697 63514c52,-287 100,-576 146,-867 275,-1739 324,-3483 326,-5457l0 -192c-14,16 -34,23 -39,52l-358 561c-605,1087 -1382,3673 -2010,5901l1936 1z"/>
    <path class="fil1" d="M53716 63514c-1566,-2181 -3885,-5237 -5127,-6632 -175,-196 -203,-271 -369,-458 -793,-891 -2391,-2747 -3239,-3195 223,2679 171,2918 185,5424l-185 3859c-18,319 7,675 4,999l8732 2z"/>
    <path class="fil1" d="M36376 63512l-124 -175c-516,-858 -1625,-2741 -1988,-3620 -1318,-3192 -2012,-4628 -2586,-8536 -418,-2846 -308,-3811 -305,-6411 1,-579 124,-1571 229,-2424l-1257 0c-733,845 -1504,1808 -1779,2190 -1653,2291 -2905,4696 -3991,7407 -1239,3093 -2365,7412 -2623,10973 -12,167 -5,369 18,599l14406 -3z"/>
    <path class="fil1" d="M44440 63511l265 -5410c0,-1697 26,-2582 -89,-4231 -87,-1251 -349,-2135 2134,348 1015,1015 2464,2732 3391,3871 562,689 1053,1349 1601,2076 274,363 495,628 762,984 293,391 959,1298 1714,2364l5095 -1c687,-2528 1551,-5458 2544,-6825 186,-256 278,-471 312,-718l0 -577c-33,-369 -109,-843 -175,-1528 -368,-3798 -1532,-7935 -3380,-11519l-7708 1c-148,1823 -335,3504 -486,4741 -81,664 -241,2389 -476,2833 -426,-99 -442,-287 -663,-625 -1182,-1812 -2769,-4671 -3720,-6575 -70,-141 -130,-260 -187,-377l-10665 -1c-522,2047 -1256,3943 -2211,5481 -107,172 -203,327 -334,493 -403,510 -422,330 -173,1999 684,4582 1539,7208 3644,11155 400,751 801,1417 1212,2038l7592 1z"/>
    <path class="fil1" d="M25131 42348l-342 617c-1932,3857 -3243,9165 -3248,13642l0 28 92 4315c278,-320 358,-1557 435,-1955 132,-685 280,-1274 447,-1943 1066,-4261 2078,-6561 4113,-10319 165,-305 283,-442 458,-737 658,-1113 1698,-2498 2705,-3652l-4660 2z"/>
    <path class="fil1" d="M50470 42347c-82,1103 -153,2104 -303,3201l-407 3545 -2053 -3278c-176,-347 -288,-487 -460,-826l-1383 -2641 4606 -1z"/>
    <path class="fil1" d="M32008 42348c-175,1429 -451,4443 -172,5643 446,-327 1427,-2616 1708,-3348 241,-627 487,-1429 711,-2297l-2248 3z"/>
   </g>
   <g>
    <path class="fil2" d="M31602 42346c76,-623 142,-1173 142,-1433 -275,184 -826,773 -1399,1434l1257 0z"/>
    <path class="fil2" d="M45374 42345c-75,-152 -148,-299 -240,-482l-3094 -5915c-154,-297 -306,-510 -462,-826l-901 -1673c-335,-551 -585,-1102 -918,-1655 -336,-556 -620,-1064 -955,-1619 -654,-1083 -3234,-5590 -4763,-5624 9,383 129,778 196,1183l1104 5974c119,727 354,1690 354,2495 0,2679 -322,5534 -987,8142l10665 1z"/>
    <path class="fil2" d="M58614 42346c-718,-1393 -1540,-2703 -2459,-3876 -267,-341 -466,-576 -735,-920 -508,-649 -1066,-1098 -1589,-1720 -269,-319 -455,-616 -739,-915 -546,-573 -1907,-2365 -2321,-2643 563,2417 423,6518 135,10075l7708 -1z"/>
    <path class="fil2" d="M45864 42348l-1649 -3151c-310,-620 -598,-1101 -889,-1685l-859 -1623c-592,-1169 -1223,-2213 -1806,-3342l-936 -1637c-180,-298 -300,-491 -474,-813 -749,-1385 -3493,-6006 -5300,-6006l-240 -1463 -240 -1463 7221 14c84,106 171,214 259,324 196,243 235,312 468,543l2002 1951c279,368 599,650 941,989l3356 3722c197,211 215,296 412,507 220,235 265,262 476,535 185,239 304,309 486,525 1269,1509 1332,1300 1585,4390 136,1661 -60,5776 -173,7263 -11,141 -21,280 -31,417l-4606 1z"/>
    <path class="fil2" d="M34255 42345c446,-1725 810,-3712 887,-5112 63,-1147 276,-2547 95,-3583 -114,-656 -315,-1568 -368,-2205 -544,145 -2599,2116 -3310,2665l-1815 1770c-682,675 -2613,3102 -3186,3984 -182,279 -275,456 -459,736l-969 1749 4660 -2c347,-397 689,-767 1011,-1088 230,-231 996,-1135 1242,-1150 480,-31 125,1055 14,1855 -15,110 -32,239 -50,386l2248 -3z"/>
    <path class="fil2" d="M41213 21184c583,706 1184,1368 1561,1620 208,-311 458,-926 675,-1623l-2236 3z"/>
   </g>
   <g>
    <path class="fil3" d="M33469 21166l-479 -2916c-365,-2510 -511,-4373 -511,-7027 0,-1591 201,-3206 498,-4558 197,-897 911,-3242 1432,-3623 0,5165 1239,9556 2972,13022 1033,2066 1933,3387 3308,5116l-7221 -14z"/>
    <path class="fil3" d="M43449 21181c0,0 0,0 0,0 289,-928 520,-2002 520,-2697 0,-2799 -3283,-7470 -5016,-9782 -562,-750 -2673,-3452 -3325,-4121 -382,-392 -464,-606 -760,-803 0,5765 1850,10953 4780,15351 250,376 895,1246 1564,2057l2236 -3z"/>
    <path class="fil3" d="M32571 6535c320,-1375 792,-2660 1379,-3769l-1356 -1493c-467,-406 -1196,-1160 -1585,-1264 0,1652 742,4557 1363,6174 90,233 62,194 199,352z"/>
   </g>
  </g>
 </g>
</svg>
